<svg xmlns="http://www.w3.org/2000/svg" viewBox="0 0 32 32" xml:space="preserve"><path stroke="#e44c49" d="M27.3 28.26c-.65 0-1.32-.16-1.93-.49a4 4 0 0 1-2.06-4.22l1.5-8.14a.36.36 0 0 1 .64-.16l5.09 6.58a4 4 0 0 1 .33 4.34 4 4 0 0 1-3.57 2.09m-1.93-11.93-1.33 7.26-.02.1a3.3 3.3 0 0 0 1.7 3.45c1.6.87 3.64.27 4.51-1.32a3.3 3.3 0 0 0-.27-3.55zm-10.76 9.18q-1.28 0-2.45-.64a5 5 0 0 1-2.59-4.6.36.36 0 0 1 .53-.3l7.34 4.04a.36.36 0 0 1 .03.61c-.86.59-1.86.88-2.86.88m-4.3-4.6a4.34 4.34 0 0 0 6.24 3.43zm8.51 2-.17-.04-8.2-4.5a.36.36 0 0 1-.13-.49l1.14-2.03c.1-.17.32-.23.49-.14l8.19 4.5a.36.36 0 0 1 .14.49l-1.14 2.03a.4.4 0 0 1-.32.18m-7.7-5 7.56 4.16.8-1.4-7.56-4.16zm9.97.97-.17-.05-8.19-4.5a.36.36 0 0 1-.14-.49l1.15-2.03c.1-.17.3-.23.48-.14l8.2 4.5a.36.36 0 0 1 .13.5l-1.14 2.02a.4.4 0 0 1-.32.19m-7.7-5 7.57 4.15.79-1.4-7.56-4.15zm-8.7 1.97a4.1 4.1 0 0 1-3.9-2.96 4 4 0 0 1 .38-3.04 4.1 4.1 0 0 1 3.9-2l8.34.79a.36.36 0 0 1 .2.63l-6.14 5.49a4.3 4.3 0 0 1-2.78 1.09m0-7.3c-1.18 0-2.3.63-2.9 1.66a3.27 3.27 0 0 0 1.25 4.48c1.25.7 2.81.54 3.88-.4l5.6-5.01L5 8.56zm18.25 6.06-.17-.04-7.34-4.03a.36.36 0 0 1-.03-.62 5.1 5.1 0 0 1 5.31-.25 5 5 0 0 1 2.59 4.6.36.36 0 0 1-.36.34m-6.6-4.4 6.23 3.43a4.2 4.2 0 0 0-2.2-3.34 4.4 4.4 0 0 0-4.04-.09m8.48.49a2 2 0 0 1-1.93-1.45c-.14-.5-.08-1.04.18-1.5a2.02 2.02 0 0 1 3.68.43c.14.5.08 1.04-.18 1.5a2 2 0 0 1-1.75 1.02m0-3.25c-.45 0-.89.24-1.12.65q-.25.47-.12.96.16.5.61.76c.63.34 1.4.12 1.75-.5q.25-.44.11-.95c-.09-.32-.3-.6-.6-.76a1.3 1.3 0 0 0-.63-.16m-5.45.26a2 2 0 0 1-1.93-1.45c-.14-.5-.08-1.04.18-1.5a2.02 2.02 0 0 1 3.68.43c.15.5.08 1.04-.18 1.5a2 2 0 0 1-1.75 1.02m0-3.25c-.45 0-.89.24-1.12.65q-.25.46-.11.96t.6.76a1.3 1.3 0 0 0 1.76-.5q.24-.44.1-.95a1.3 1.3 0 0 0-1.23-.92"/><path fill="none" d="M0 0h32v32H0z"/></svg>